<?xml version="1.0" encoding="utf-8"?>
<!-- Generator: Adobe Illustrator 26.1.0, SVG Export Plug-In . SVG Version: 6.00 Build 0)  -->
<svg version="1.1" id="Capa_1" xmlns="http://www.w3.org/2000/svg" xmlns:xlink="http://www.w3.org/1999/xlink" x="0px" y="0px"
	 viewBox="0 0 85.09 112" style="enable-background:new 0 0 85.09 112;" xml:space="preserve">
<style type="text/css">
	.st0{fill:#DADADA;}
	.st1{fill:#0EADAD;}
	.st2{fill:url(#SVGID_1_);}
	.st3{fill:none;}
	.st4{display:none;fill:none;}
	.st5{display:none;}
	.st6{display:inline;fill:#13110C;}
</style>
<g>
	<path class="st0" d="M61.63,71.37c-1.49-1.17-3.99-2.17-7.14-2.87c0,0,0,0,0,0c-2.86,2.62-6.69,4.22-10.9,4.22
		c-4.21,0-8.03-1.6-10.9-4.22c0,0,0,0,0,0c-3.15,0.7-5.65,1.7-7.14,2.87c-0.99,0.78-1.53,1.63-1.53,2.52c0,0.05,0,0.1,0.01,0.14
		c0,0.01,0,0.02,0,0.03c0.01,0.17,0.05,0.34,0.1,0.51c0.02,0.06,0.04,0.12,0.07,0.18c2.93,7.88,10.51,13.5,19.4,13.5
		c8.89,0,16.47-5.61,19.4-13.5c0.02-0.06,0.17-0.42,0.17-0.86C63.17,72.99,62.62,72.14,61.63,71.37z"/>
	<path class="st1" d="M57.47,48.76L43.59,21.15L29.72,48.77c-0.37,0.62-0.69,1.27-0.98,1.94l0,0l0,0c-0.79,1.88-1.22,3.93-1.22,6.09
		c0,8.79,7.2,15.92,16.07,15.92s16.07-7.13,16.07-15.92C59.67,53.87,58.87,51.12,57.47,48.76z"/>
	<path class="st1" d="M54.5,68.49c-3.12-0.69-6.86-1.1-10.9-1.1s-7.79,0.41-10.9,1.1c2.87,2.62,6.69,4.22,10.9,4.22
		S51.63,71.11,54.5,68.49z"/>
	<linearGradient id="SVGID_1_" gradientUnits="userSpaceOnUse" x1="-22.2687" y1="-6.8839" x2="45.8713" y2="61.256">
		<stop  offset="0" style="stop-color:#FFFFFF"/>
		<stop  offset="1" style="stop-color:#0EADAD"/>
	</linearGradient>
	<path class="st2" d="M24.48,59.61c-1.09,2.41-1.57,5.12-1.57,7.93c0,11.44,9.26,20.71,20.69,20.71v-67.1
		C43.59,21.15,28.92,49.84,24.48,59.61z"/>
	<circle class="st3" cx="43.59" cy="57.5" r="20.66"/>
	<line class="st4" x1="43.59" y1="57.5" x2="219.17" y2="57.5"/>
	<g class="st5">
		<rect x="73.88" y="49.11" class="st6" width="3.2" height="16.79"/>
		<polygon class="st6" points="107.87,49.11 95.08,49.11 95.08,52.31 99.88,52.31 99.88,65.91 103.08,65.91 103.08,52.31 
			107.87,52.31 		"/>
		<path class="st6" d="M117.43,65.91h3.24l-5.2-16.79h-2.4l-5.2,16.79h3.24l0.87-2.8h4.59L117.43,65.91z M114.27,55.69l1.3,4.21
			h-2.61L114.27,55.69z"/>
		<polygon class="st6" points="132.67,49.11 132.67,59.31 125.87,49.11 123.07,49.11 123.07,65.91 126.27,65.91 126.27,55.71 
			133.07,65.91 135.87,65.91 135.87,64.71 135.87,49.11 		"/>
		<polygon class="st6" points="93.88,49.11 89.88,49.11 85.35,55.91 83.48,55.91 83.48,49.11 80.28,49.11 80.28,65.91 83.48,65.91 
			83.48,59.11 85.35,59.11 89.88,65.91 93.88,65.91 88.28,57.51 		"/>
	</g>
	<rect x="140.95" y="49.2" class="st3" width="90.3" height="24.44"/>
	
		<text transform="matrix(1 0 0 1 140.9535 66.0049)" style="display:none;fill:#0EADAD; font-family:'HelveticaNeue-Medium'; font-size:23.6712px;">Protect</text>
</g>
</svg>
